<svg width="333" height="210" viewBox="0 0 333 210" fill="none" xmlns="http://www.w3.org/2000/svg">
  <filter id="blur">
    <feGaussianBlur stdDeviation="5" in="SourceGraphic" result="BLUR"></feGaussianBlur>
  </filter>
    <path d="M218.34 207.444H266.913V182.859H241.627V114.226H258.65V89.6381H241.627V27.1488H266.913V2.56396H218.34V207.444Z" fill="white" fill-opacity="0.7"/>
    <path d="M295.943 33.8088C295.943 27.6583 299.95 24.5882 303.202 24.5882C306.455 24.5882 310.212 27.6617 310.212 33.8088V65.0501H331.994V37.6481C331.994 16.9027 319.975 0 303.701 0C282.168 0 272.405 16.9027 272.405 40.7217C272.405 61.9799 285.424 94.2468 294.188 114.992C304.453 139.068 308.962 155.458 308.962 175.943C308.962 182.6 305.957 186.699 301.451 186.699C296.695 186.699 293.188 181.321 293.188 175.943V147.516H271.656V172.357C271.656 193.099 283.174 210.005 301.952 210.005C313.972 210.005 332.499 202.576 332.499 170.765C332.499 149.051 322.234 122.421 311.468 96.2947C300.452 69.4056 295.946 60.9543 295.946 33.8088H295.943Z" fill="white" fill-opacity="0.7"/>
    <path d="M69.3477 207.444H92.6346V116.784H111.663V92.1988H92.6346V27.1488H117.924V2.56396H69.3477V207.444Z" fill="white" fill-opacity="0.7"/>
    <path d="M150.464 2.56396H126.93V207.444H150.464V2.56396Z" fill="white" fill-opacity="0.7"/>
    <path d="M32.0476 124.722L23.0363 2.56396H0L20.0314 207.444H42.817L63.0957 2.56396H41.8142L32.0476 124.722Z" fill="white" fill-opacity="0.7"/>
    <path d="M185.768 2.56396H162.23V207.444H210.806V182.859H185.768V2.56396Z" fill="white" fill-opacity="0.7"/>
</svg>
